<?xml version="1.0" encoding="utf-8"?>
<!-- Generator: Adobe Illustrator 24.3.0, SVG Export Plug-In . SVG Version: 6.00 Build 0)  -->
<svg version="1.1" id="Capa_1" xmlns="http://www.w3.org/2000/svg" xmlns:xlink="http://www.w3.org/1999/xlink" x="0px" y="0px"
	 viewBox="0 0 155.5 158.6" style="enable-background:new 0 0 155.5 158.6;" xml:space="preserve">
<style type="text/css">
	.st0{fill:#EEDA00;}
	.st1{fill:none;stroke:#333332;stroke-width:2;stroke-miterlimit:10;}
	.st2{fill:#333332;stroke:#000000;stroke-width:0.25;stroke-miterlimit:10;}
	.st3{fill:none;stroke:#000000;stroke-width:2;stroke-miterlimit:10;}
	.st4{fill:none;stroke:#000000;stroke-width:0.25;stroke-miterlimit:10;}
	.st5{fill:#FFED00;stroke:#000000;stroke-width:0.25;stroke-miterlimit:10;}
	.st6{fill:none;stroke:#000000;stroke-miterlimit:10;}
</style>
<image style="display:none;overflow:visible;enable-background:new    ;" width="30" height="29" xlink:href="3C6E9AB6.png"  transform="matrix(4.830774e-02 0 0 4.830774e-02 -192.9614 -151.1809)">
</image>
<g id="XMLID_1_">
	<g>
		<path class="st0" d="M146.8,86.4l-63.3,63.3c-3.5,3.5-9.2,3.5-12.8,0L7.4,86.4c-3.5-3.5-3.5-9.2,0-12.8l63.3-63.3
			c3.5-3.5,9.2-3.5,12.8,0l63.3,63.3C150.4,77.1,150.4,82.8,146.8,86.4z"/>
	</g>
	<g>
		<path class="st1" d="M70.8,149.7L7.4,86.4c-3.5-3.5-3.5-9.2,0-12.8l63.3-63.3c3.5-3.5,9.2-3.5,12.8,0l63.3,63.3
			c3.5,3.5,3.5,9.2,0,12.8l-63.3,63.3C80,153.2,74.3,153.2,70.8,149.7z"/>
	</g>
</g>
<path class="st1" d="M70.4,140.9L15.5,86.1c-3.4-3.4-3.4-8.8,0-12.2l55.4-55.4c3.4-3.4,8.8-3.4,12.2,0l55.4,55.4
	c3.4,3.4,3.4,8.8,0,12.2l-54.8,54.8C80,144.6,74.1,144.6,70.4,140.9z"/>
<ellipse class="st2" cx="70.3" cy="49.8" rx="6.7" ry="7.3"/>
<path class="st3" d="M48.1,54.4"/>
<path class="st2" d="M87,73.5L87,73.5c8.3-0.5,17-0.9,25.3-1.5c1.1,0,2.7,0.1,2.7,1.5c-0.6,9.3-1.1,18.2-1.7,27.5l0,0
	c-1.9,0-3.8,0-5.7,0.1l0,0c0.1,0.8,0,1.6-0.4,2.3l0,0c-1.3,1.5-14.5,0.6-14.4-0.1c0-0.6,7.7,0.1,8.3-2.1c0.1-0.4-0.1-0.9-0.2-1l0,0
	C95.9,99.5,91,99,86,98.4c0,0,0,0,0,0c0-0.6,0.2-9.7,0-9.7c-0.6,0-1.9-0.1-2.4-0.3c-1.2-0.4-2.1-2.6-2-5.3l0,0
	c-2.4-0.9-4.9-1.7-7.3-2.6l0,0c-0.2,0.5-0.8,1.8-1.8,2c-1.4,0.3-3.6-1.3-4.3-4.3l0,0l-7.5-2c-0.2,0.2-0.1,0.2-0.3,0.5
	c2.2,2.6,4.4,5.3,6.6,7.9c1.2,1.4,1.4,3.6,0.8,5.7l-3.9,15.6c-0.8,3-6.9,1.5-5.8-2l3.9-14.5l0,0l-9.2-7.5l0,0l-1.9,24.8
	c-0.2,3.3-6.1,3.2-6.1-0.5L47.2,71l0,0l-3.7-1.3l0,0c-2.1,2.5-6.2,2-5.8-2.1l0,0l-8.2-2.9l0,0l0.7-0.8l0,0l7.8,2.9l0,0l9.2-11.4l0,0
	c0.8-0.8,1.2-0.9,2.5-0.8l13.4,0.8c1.5,0.2,3.3,1.6,4.1,3.4l0,0c2.1,6.4,4.2,12.8,6.4,19.2l0,0c0.1,0.3,0.2,0.5,0.3,0.8
	c0.1,0.3,0.2,0.5,0.3,0.8l0,0c3.4,1.4,11.6,4.3,12.2,4.3l0,0C86.6,83.7,86.8,76.8,87,73.5z"/>
<path class="st4" d="M86.2,83.5"/>
<path class="st5" d="M87.7,83.8c1.1,0.4,3.7,1.9,7.1,3.1l0,0c-2.5,0.5-5.1,1-7.6,1.5l0,0c0.1,1.3,0.1,2.7,0.2,4l0,0
	c7.1,0.6,15.9,1.4,23,2l0,0c0.9-6.4,0.1-12.9,1-19.3l0,0c-7.7-0.1-15.5-0.2-23.2-0.2l0,0C88,78,87.8,80.7,87.7,83.8"/>
<path class="st4" d="M50,60.5"/>
<path class="st5" d="M50,60.7l-0.1,0.1l-5.7,7.7l0,0l3.6,1.3l0,0c0.4-0.3,6-8,6-8c0.5-0.8,0.4-1.4-0.8-1.3L50,60.7z"/>
<path class="st5" d="M64.6,70.4c0.3-0.3,0.9-0.4,1.1,0.2l2,6.3l0,0l-6.6-2l0,0L64.6,70.4z"/>
<path class="st4" d="M104.9,98.6"/>
<path class="st5" d="M98.4,96.1c0.1,0.7-0.4,1.2-1.1,1.1c-0.4-0.1-0.7-0.4-0.7-0.7c-0.1-0.7,0.4-1.2,1.1-1.1
	C98,95.5,98.3,95.8,98.4,96.1z"/>
<polygon class="st2" points="77.1,105.6 83.1,103.2 83.1,103.2 105.8,106.1 105.8,106.1 105.8,109 105.8,109 100,110.4 100,110.4 
	"/>
<ellipse class="st2" cx="110.4" cy="108.4" rx="3.1" ry="1.2"/>
<g>
	<g>
		<path class="st6" d="M-200.3-43.3"/>
	</g>
</g>
<g>
	<g>
		<path class="st6" d="M-238.5-122.6"/>
	</g>
</g>
<g>
	<g>
		<path class="st6" d="M-224.2-114.7"/>
	</g>
</g>
<g>
	<g>
		<path class="st6" d="M-224.2-114.7"/>
	</g>
</g>
<g>
	<g>
		<path class="st6" d="M-239.6-65.9"/>
	</g>
</g>
</svg>
